<svg xmlns="http://www.w3.org/2000/svg" width="74.077" height="88" viewBox="0 0 74.077 88">
  <g id="Group_1625" data-name="Group 1625" transform="translate(-92 -50.667)">
    <path id="Path_27" data-name="Path 27" d="M92.8,11.412,33.457,33.2,92.8,22.654Z" transform="translate(58.548 39.255)" fill="#ffe600"/>
    <path id="Path_28" data-name="Path 28" d="M39.606,88.936a1.723,1.723,0,0,0-1.08-1.634,1.663,1.663,0,0,0,.831-1.452c0-1.217-.827-1.915-2.268-1.915H33.975v7.351h3.083A2.255,2.255,0,0,0,39.606,88.936Zm-2.544,1.1h-1.73V87.949h1.73c.735,0,1.108.351,1.108,1.041A.984.984,0,0,1,37.062,90.041Zm-.011-3.289h-1.72v-1.57h1.648c.648,0,.963.259.963.791C37.942,86.329,37.788,86.752,37.051,86.752Zm3.486,2.2V85.916h1.319v2.957c0,.9.312,1.311.981,1.311s.992-.438.992-1.3V85.916h1.319v5.37H43.829v-.429a1.641,1.641,0,0,1-1.276.544C40.8,91.4,40.537,89.866,40.537,88.951Zm20.113,2.335H59.332v-5.37h1.319v.453a1.737,1.737,0,0,1,1.337-.569c1.279,0,1.955.847,1.955,2.45v3.036H62.624V88.328c0-.9-.305-1.312-.961-1.312s-1.013.45-1.013,1.3Zm-13-2.849v2.849H46.333v-5.37h1.318Zm1.175-4.09,1.319-.664v7.6H48.826ZM54.337,86.3a1.6,1.6,0,0,0-1.184-.493c-1.29,0-2.092,1.052-2.092,2.745,0,1.787.772,2.853,2.065,2.853a1.66,1.66,0,0,0,1.211-.524v.41h1.317v-7.6l-1.317.663Zm-.928,3.883c-.459,0-1.005-.289-1.005-1.663,0-1.239.538-1.5.988-1.5a1.121,1.121,0,0,1,.945.524v2.109A1.1,1.1,0,0,1,53.409,90.178ZM83.092,85.8a1.787,1.787,0,0,0-1.184.5V83.822l-1.318.662v6.8h1.318v-.4a1.643,1.643,0,0,0,1.211.516c1.315,0,2.068-1.04,2.068-2.853C85.187,86.854,84.384,85.8,83.092,85.8Zm-.246,1.215c.481,0,.995.394.995,1.5s-.316,1.663-.968,1.663a1.278,1.278,0,0,1-.965-.505V87.562A1.108,1.108,0,0,1,82.846,87.017ZM68.1,86.292A1.656,1.656,0,0,0,66.92,85.8c-1.289,0-2.092,1.052-2.092,2.745,0,1.787.773,2.853,2.065,2.853a1.652,1.652,0,0,0,1.212-.519V91c0,.588,0,1.393-1.706,1.423h-.06l.467,1.042h.026c1.743-.027,2.59-.906,2.59-2.685v-4.87H68.1Zm0,1.246v2.109a1.109,1.109,0,0,1-.935.529c-.455,0-1-.289-1-1.663,0-1.239.537-1.5.988-1.5A1.122,1.122,0,0,1,68.1,87.538Zm5.413-.3a2.572,2.572,0,0,1,1.365-.371c.623,0,.954.267.954.772V88a2.677,2.677,0,0,0-1.135-.254c-.981,0-2.128.461-2.128,1.76a1.825,1.825,0,0,0,1.979,1.9,1.778,1.778,0,0,0,1.284-.554v.44h1.317v-3.62c0-1.168-.806-1.865-2.155-1.865a3.887,3.887,0,0,0-2,.519Zm.375,2.27c0-.478.34-.763.909-.763a1.91,1.91,0,0,1,1.035.265v.735a1.23,1.23,0,0,1-1.035.566A.8.8,0,0,1,73.892,89.5Zm15.526.222a1.512,1.512,0,0,1-1.052.452,1.129,1.129,0,0,1-1.185-1.17h3.272c.008-.111.015-.268.015-.4,0-1.7-.879-2.8-2.239-2.8a2.534,2.534,0,0,0-2.389,2.8,2.535,2.535,0,0,0,4.409,1.952ZM87.2,88.037a1.045,1.045,0,0,1,.992-1.111A1.033,1.033,0,0,1,89.2,88.037Zm14.942,1.689a1.513,1.513,0,0,1-1.052.452,1.129,1.129,0,0,1-1.184-1.17h3.271c.008-.111.016-.268.016-.4,0-1.7-.879-2.8-2.238-2.8a2.536,2.536,0,0,0-2.393,2.8,2.538,2.538,0,0,0,4.413,1.952Zm-2.219-1.689a1.045,1.045,0,0,1,.992-1.111c.7,0,.975.566,1.006,1.111Zm-3.181,1.384c0,.478.179.723.571.723a1.737,1.737,0,0,0,.8-.243l-.155,1.252a2.4,2.4,0,0,1-1.109.248,1.464,1.464,0,0,1-1.423-1.646V87.16H94.6V85.916h.82V84.539l1.319-.663v2.04h1.2V87.16h-1.2Zm-2.556,1.731a2.4,2.4,0,0,1-1.108.248,1.463,1.463,0,0,1-1.423-1.646V87.16H90.83V85.916h.825V84.539l1.318-.663v2.04H94.1V87.16H92.972v2.262c0,.478.179.723.57.723a1.738,1.738,0,0,0,.8-.243Zm13-3.733a1.532,1.532,0,0,0-.871-.292c-.649,0-.952.4-.952,1.249v2.909h-1.319v-5.37h1.319v.466a1.425,1.425,0,0,1,1.179-.58,1.693,1.693,0,0,1,.99.324ZM47.649,84.486v.662H46.333V83.824h1.316Zm9.181,1.43h1.319v5.37H56.83Zm1.317-1.43v.662H56.83V83.824h1.317ZM94.359,95.672a1.6,1.6,0,0,0-1.184-.493c-1.291,0-2.092,1.052-2.092,2.745,0,1.787.772,2.853,2.065,2.853a1.661,1.661,0,0,0,1.211-.525v.41h1.317v-7.6l-1.317.663Zm-.928,3.883c-.458,0-1-.289-1-1.663,0-1.239.537-1.5.988-1.5a1.121,1.121,0,0,1,.945.524v2.109A1.1,1.1,0,0,1,93.43,99.556ZM49.575,96.8a1.548,1.548,0,0,0-.874-.292c-.65,0-.952.4-.952,1.249v2.909H46.432v-5.37h1.318v.466a1.423,1.423,0,0,1,1.179-.58,1.7,1.7,0,0,1,.994.324ZM39.2,95.293h1.3L39,100.662H37.863l-.592-2.229c-.1-.392-.219-.863-.291-1.168-.05.218-.2.88-.3,1.212l-.586,2.185h-1.14l-.008-.029-1.5-5.341H34.81L35.3,97.3c.074.314.2.912.267,1.316.074-.4.219-.977.317-1.345l.556-1.977h1.121l.556,1.977c.095.354.238.936.317,1.352.061-.345.171-.846.283-1.352Zm3.992-.121a2.834,2.834,0,1,0,2.426,2.8A2.549,2.549,0,0,0,43.192,95.172Zm0,4.357c-.657,0-1.081-.61-1.081-1.553s.423-1.552,1.081-1.552,1.082.609,1.082,1.552S43.849,99.529,43.192,99.529ZM87.866,96.8a1.548,1.548,0,0,0-.873-.292c-.65,0-.949.4-.949,1.249v2.909H84.725v-5.37h1.319v.466a1.413,1.413,0,0,1,1.176-.58,1.7,1.7,0,0,1,.994.324Zm-10.373-1.5h1.3l-1.507,5.369H76.157l-.593-2.229c-.1-.392-.219-.863-.291-1.168-.05.218-.2.88-.3,1.212l-.586,2.185h-1.14l-.008-.029-1.5-5.341H73.1l.49,2.006c.074.314.2.912.268,1.316.073-.4.218-.977.316-1.345l.556-1.977h1.122l.556,1.977c.094.354.238.936.317,1.352.061-.345.17-.846.283-1.352Zm3.983-.118a2.834,2.834,0,1,0,2.427,2.8A2.549,2.549,0,0,0,81.476,95.175Zm0,4.357c-.657,0-1.082-.61-1.082-1.553s.424-1.552,1.082-1.552,1.082.609,1.082,1.552S82.133,99.532,81.476,99.532ZM53.5,97.062l1.625,3.6H53.669L52.547,98.17l-.7.884v1.609H50.537v-6.93l1.313-.663v4.274c.164-.237.358-.492.5-.674L53.4,95.293h1.524Zm6.261,3.6H58.443v-5.37h1.319v.453a1.737,1.737,0,0,1,1.337-.569c1.279,0,1.955.847,1.955,2.45v3.036H61.736V97.705c0-.9-.305-1.312-.961-1.312s-1.013.45-1.013,1.3Zm7.454-4.994a1.658,1.658,0,0,0-1.184-.493c-1.289,0-2.092,1.052-2.092,2.745,0,1.787.773,2.853,2.065,2.853a1.652,1.652,0,0,0,1.212-.519v.125c0,.588,0,1.393-1.7,1.423l-.06,0,.464,1.041h.026c1.743-.027,2.59-.906,2.59-2.685v-4.87H67.216Zm0,1.246v2.109a1.11,1.11,0,0,1-.935.529c-.455,0-1-.289-1-1.663,0-1.239.534-1.5.985-1.5A1.122,1.122,0,0,1,67.216,96.916ZM55.942,95.294H57.26v5.37H55.942Zm1.317-1.429v.661H55.942V93.2h1.317Zm31.581-.132,1.319-.663v7.592H88.839ZM42.978,64.655H53.833v-6.34H42.978V53.332H54.986L51,46.388H33.975V76.582H57.99V69.637H42.978ZM73.973,46.388l-5.1,9.854-5.087-9.854H53.833L64.321,64.655V76.582H73.3V64.655L83.8,46.388Z" transform="translate(58.549 35.818)" fill="#2e2e38"/>
  </g>
</svg>
